# xmcd CD database file
#
# Track frame offsets:
#	150
#	30079
#	58619
#	91776
#	128164
#	155085
#	183860
#	216366
#
# Disc length: 3403 seconds
#
# Revision: 0
# Processed by: cddbd v1.5.1PL2 Copyright (c) Steve Scherf et al.
# Submitted via: CDex 1.51
#
DISCID=600d4908
DTITLE=Various Artist - Spellbound Sea
DYEAR=2001
DGENRE=Jazz
TTITLE0=Mambo Gumbo
TTITLE1=Malanbar
TTITLE2=Coral Colours
TTITLE3=Jacaranda
TTITLE4=34 Degrees South
TTITLE5=The Wild Uproar
TTITLE6=Southerly Buster
TTITLE7=Spice Island
EXTD=YEAR: 2001
EXTT0=
EXTT1=
EXTT2=
EXTT3=
EXTT4=
EXTT5=
EXTT6=
EXTT7=
PLAYORDER=
